<?xml version="1.0" encoding="UTF-8" standalone="no"?>
<!--part of the matt icon theme by sixsixfive released under CC0 (https://creativecommons.org/publicdomain/zero/1.0/) on openclipart-->
<svg xmlns="http://www.w3.org/2000/svg" xmlns:xlink="http://www.w3.org/1999/xlink" viewBox="0 0 128 128">
 <defs id="0">
  <linearGradient id="2">
   <stop id="M"/>
   <stop id="N" offset="1" stop-opacity="0"/>
  </linearGradient>
  <linearGradient id="3">
   <stop id="O" stop-color="#eee" stop-opacity="0.453"/>
   <stop id="P" offset="1" stop-color="#eee" stop-opacity="0"/>
  </linearGradient>
  <linearGradient id="4">
   <stop id="Q" stop-color="#382509"/>
   <stop id="R" offset="1" stop-color="#5e4114"/>
  </linearGradient>
  <linearGradient id="5">
   <stop id="S" stop-color="#382509"/>
   <stop id="T" offset="1" stop-color="#6c5125"/>
  </linearGradient>
  <linearGradient id="6">
   <stop id="U" stop-color="#b3925d" stop-opacity="0"/>
   <stop id="V" offset="0.5" stop-color="#8f6b32"/>
   <stop id="W" offset="1" stop-color="#b3925d" stop-opacity="0"/>
  </linearGradient>
  <linearGradient x1="57.988" y1="52.727" x2="74.59" y2="73.55" id="7" xlink:href="#6" gradientUnits="userSpaceOnUse"/>
  <radialGradient cx="102.01" cy="343.17" r="47.908" id="8" xlink:href="#5" gradientUnits="userSpaceOnUse" gradientTransform="matrix(2.3039313,-1.5031432,0.5007811,0.7675685,-299.73234,228.01275)"/>
  <radialGradient cx="112.61" cy="389.41" r="47.686" id="9" xlink:href="#4" gradientUnits="userSpaceOnUse" gradientTransform="matrix(2.537436,-1.4555605,0.5053779,0.8810104,-369.92133,211.04293)"/>
  <radialGradient cx="121.26" cy="269.9" r="52.741" id="A" xlink:href="#3" gradientUnits="userSpaceOnUse" gradientTransform="matrix(2.2216702,-0.02714823,0.01297178,1.0615436,-158.99347,-16.907375)"/>
  <filter color-interpolation-filters="sRGB" id="B">
   <feGaussianBlur stdDeviation="2.31092" id="X"/>
  </filter>
  <radialGradient cx="51.15" cy="123.13" r="34.1" id="C" xlink:href="#2" gradientUnits="userSpaceOnUse" gradientTransform="matrix(1,0,0,0.1071429,0,109.93599)"/>
 </defs>
 <g transform="translate(-47.199497,-267.37554)" id="1">
  <path d="m 85.254707,123.1283 a 34.101883,3.6537731 0 1 1 -68.203766,0 34.101883,3.6537731 0 1 1 68.203766,0 z" transform="matrix(1.4598214,0,0,1,24.744017,266.4621)" id="D" opacity="0.324" fill="url(#C)"/>
  <path d="m 150.79876,354.5594 c -24.62385,32.053 -54.676967,43.38822 -75.315137,29.13909 -22.146913,-15.29081 -29.031322,-54.11998 -1.301331,-80.74508 24.739327,-23.75357 53.548508,-36.08349 75.315168,-29.13907 23.83824,7.60533 23.38418,46.45135 1.3013,80.74506 z" id="E" fill="#382509"/>
  <path d="m 171.5,301.3125 c -1.15432,-0.11879 -2.3526,-0.0184 -3.59375,0.34375 -9.44767,2.75697 -17.31634,14.5859 -20.65625,30.03125 -3.63957,16.83116 8.67141,29.17886 20.28125,29.3125 5.36856,0.0618 9.96806,-2.62698 13.5625,-7.75 3.57771,-5.09919 6.03195,-12.62867 6.625,-21.84375 -8.8e-4,-0.0425 9.8e-4,-0.0826 0,-0.125 -0.18661,-8.11626 -2.15835,-15.49618 -5.15625,-20.875 -3.01358,-5.40695 -6.99402,-8.67506 -11.0625,-9.09375 z" transform="matrix(1.7640002,1.1881642,-1.1881642,1.7640002,210.74329,-454.79335)" id="F" fill="#57401e"/>
  <path d="M 107.84375,12.96875 C 95.656667,31.573452 77.088686,46.536726 58.5625,60.4375 42.851442,72.225991 27.081389,83.084904 15.84375,95.53125 17.377284,99.17619 19.302247,102.56249 21.625,105.5625 31.683201,93.633537 47.793034,81.887466 64.96875,69 82.570192,55.793095 101.15827,41.14138 114.4375,22.34375 c -1.50004,-3.796214 -3.6284,-6.927249 -6.375,-9.21875 -0.0679,-0.05665 -0.14997,-0.100457 -0.21875,-0.15625 z" transform="translate(47.199497,267.37554)" id="G" fill="#1c1203" fill-rule="evenodd"/>
  <path d="M 107.84375,12.96875 C 95.656667,31.573452 77.088686,46.536726 58.5625,60.4375 42.851442,72.225991 27.081389,83.084904 15.84375,95.53125 17.377284,99.17619 19.302247,102.56249 21.625,105.5625 31.683201,93.633537 47.793034,81.887466 64.96875,69 82.570192,55.793095 101.15827,41.14138 114.4375,22.34375 c -1.50004,-3.796214 -3.6284,-6.927249 -6.375,-9.21875 -0.0679,-0.05665 -0.14997,-0.100457 -0.21875,-0.15625 z" transform="translate(47.199497,267.37554)" id="H" fill="#1c1203" fill-rule="evenodd"/>
  <path d="M 108.1875,18.09375 C 95.671635,35.713095 78.014956,49.943931 60.53125,63.0625 45.424813,74.397325 30.583172,84.807489 19.8125,96.21875 c 0.690449,1.444084 1.457202,2.835457 2.28125,4.15625 C 32.553408,89.071008 47.280849,78.169561 63,66.375 80.049457,53.582266 97.758087,39.537981 110.59375,22 c -0.70287,-1.46316 -1.49913,-2.770139 -2.40625,-3.90625 z" transform="translate(47.199497,267.37554)" id="I" opacity="0.324" fill="url(#7)" filter="url(#B)" fill-rule="evenodd"/>
  <path d="m 136.54325,275.09429 c -18.30418,0.10355 -40.458642,11.24349 -60.156253,30.15625 -18.357175,17.62575 -20.528361,40.5797 -13.34375,57.65625 11.237639,-12.44635 27.007692,-23.30526 42.718753,-35.09375 18.52618,-13.90077 37.09416,-28.86405 49.28125,-47.46875 -1.85058,-1.50122 -4.00541,-2.72539 -6.53125,-3.53125 -3.73902,-1.19289 -7.74471,-1.74265 -11.96875,-1.71875 z" id="J" fill="url(#8)"/>
  <path d="m 161.637,289.71929 c -13.27923,18.79763 -31.86731,33.44934 -49.46875,46.65625 -17.175719,12.88747 -33.285552,24.63354 -43.343753,36.5625 2.455918,3.172 5.34452,5.9248 8.53125,8.125 9.396724,6.48772 20.697418,7.20372 33.125003,2.4375 12.36975,-4.74407 25.62983,-15.10549 37.625,-30.65625 0.0489,-0.076 0.10754,-0.1427 0.15625,-0.21875 9.31427,-14.53881 14.61612,-29.88726 15.71875,-42.9375 0.65261,-7.72405 -0.19592,-14.53313 -2.34375,-19.96875 z" id="K" fill="url(#9)"/>
  <path d="m 132.40625,276.375 c -16.98313,1.52066 -37.193351,12.35034 -55.25,29.6875 -25.972792,24.93792 -18.945511,60.49545 0.75,74.09375 9.079973,6.26905 19.997851,6.98902 32.1875,2.3125 12.18011,-4.67286 25.34227,-14.96965 37.28125,-30.5 0.008,-0.0123 0.0234,-0.019 0.0312,-0.0312 10.51453,-16.44656 15.78755,-33.95924 15.6875,-47.71875 -0.0503,-6.92372 -1.46316,-12.84775 -3.96875,-17.28125 -2.50559,-4.4335 -5.98922,-7.45255 -10.9375,-9.03125 -4.83162,-1.54147 -10.1199,-2.03816 -15.78125,-1.53125 z" id="L" opacity="0.727" fill="none" stroke="url(#A)" stroke-linejoin="round" stroke-linecap="round" stroke-width="2.67"/>
 </g>
</svg>
